<?xml version="1.0" encoding="UTF-8" standalone="no"?>
<!DOCTYPE svg PUBLIC "-//W3C//DTD SVG 1.1//EN"
 "http://www.w3.org/Graphics/SVG/1.1/DTD/svg11.dtd">
<!-- Generated by graphviz version 2.30.1 (20130214.1453)
 -->
<!-- Title: G Pages: 1 -->
<svg width="270pt" height="205pt"
 viewBox="0.00 0.00 270.00 205.00" xmlns="http://www.w3.org/2000/svg" xmlns:xlink="http://www.w3.org/1999/xlink">
<g id="graph0" class="graph" transform="scale(1 1) rotate(0) translate(4 201)">
<title>G</title>
<polygon fill="white" stroke="white" points="-4,5 -4,-201 267,-201 267,5 -4,5"/>
<g id="clust1" class="cluster"><title>cluster_Warden</title>
<path fill="none" stroke="gray" d="M20,-8C20,-8 242,-8 242,-8 248,-8 254,-14 254,-20 254,-20 254,-177 254,-177 254,-183 248,-189 242,-189 242,-189 20,-189 20,-189 14,-189 8,-183 8,-177 8,-177 8,-20 8,-20 8,-14 14,-8 20,-8"/>
<text text-anchor="middle" x="131" y="-174" font-family="Times,serif" font-size="11.00" fill="gray">Warden</text>
</g>
<!-- \\Warden\\Hash -->
<g id="node1" class="node"><title>\\Warden\\Hash</title>
<g id="a_node1"><a xlink:href="Hash.html" xlink:title="Hash" target="_parent">
<polygon fill="none" stroke="black" points="245,-160 191,-160 191,-124 245,-124 245,-160"/>
<text text-anchor="middle" x="218" y="-137.6" font-family="Courier,monospace" font-size="11.00">Hash</text>
</a>
</g>
</g>
<!-- \\Warden\\HashInterface -->
<g id="node2" class="node"><title>\\Warden\\HashInterface</title>
<g id="a_node2"><a xlink:href="HashInterface.html" xlink:title="HashInterface" target="_parent">
<polygon fill="none" stroke="black" points="117.814,-160 16.1859,-160 16.1859,-124 117.814,-124 117.814,-160"/>
<text text-anchor="middle" x="67" y="-137.6" font-family="Courier,monospace" font-size="11.00">HashInterface</text>
</a>
</g>
</g>
<!-- \\Warden\\Hash&#45;&gt;\\Warden\\HashInterface -->
<g id="edge1" class="edge"><title>\\Warden\\Hash&#45;&gt;\\Warden\\HashInterface</title>
<path fill="none" stroke="black" stroke-dasharray="1,5" d="M190.705,-142C173.323,-142 149.807,-142 128.011,-142"/>
<polygon fill="none" stroke="black" points="127.816,-138.5 117.816,-142 127.816,-145.5 127.816,-138.5"/>
</g>
<!-- \\Warden\\Salt -->
<g id="node3" class="node"><title>\\Warden\\Salt</title>
<g id="a_node3"><a xlink:href="Salt.html" xlink:title="Salt" target="_parent">
<polygon fill="none" stroke="black" points="245,-106 191,-106 191,-70 245,-70 245,-106"/>
<text text-anchor="middle" x="218" y="-83.6" font-family="Courier,monospace" font-size="11.00">Salt</text>
</a>
</g>
</g>
<!-- \\Warden\\SaltInterface -->
<g id="node4" class="node"><title>\\Warden\\SaltInterface</title>
<g id="a_node4"><a xlink:href="SaltInterface.html" xlink:title="SaltInterface" target="_parent">
<polygon fill="none" stroke="black" points="117.814,-106 16.1859,-106 16.1859,-70 117.814,-70 117.814,-106"/>
<text text-anchor="middle" x="67" y="-83.6" font-family="Courier,monospace" font-size="11.00">SaltInterface</text>
</a>
</g>
</g>
<!-- \\Warden\\Salt&#45;&gt;\\Warden\\SaltInterface -->
<g id="edge2" class="edge"><title>\\Warden\\Salt&#45;&gt;\\Warden\\SaltInterface</title>
<path fill="none" stroke="black" stroke-dasharray="1,5" d="M190.705,-88C173.323,-88 149.807,-88 128.011,-88"/>
<polygon fill="none" stroke="black" points="127.816,-84.5001 117.816,-88 127.816,-91.5001 127.816,-84.5001"/>
</g>
<!-- \\Warden\\Warden -->
<g id="node5" class="node"><title>\\Warden\\Warden</title>
<g id="a_node5"><a xlink:href="Warden.html" xlink:title="Warden" target="_parent">
<polygon fill="none" stroke="black" points="245.608,-52 190.392,-52 190.392,-16 245.608,-16 245.608,-52"/>
<text text-anchor="middle" x="218" y="-29.6" font-family="Courier,monospace" font-size="11.00">Warden</text>
</a>
</g>
</g>
</g>
</svg>
